# xmcd
#
# Track frame offsets:
#	182
#	12687
#	25510
#	38335
#	51542
#	64735
#	76522
#	90532
#	101577
#	112757
#	124380
#	136262
#	148120
#	160162
#	172352
#	184752
#	197220
#	209942
#	222470
#	235465
#	248580
#	261785
#
# Disc length: 3664
#
# Revision: 2
# Processed by: cddbd v1.5.1PL0 Copyright (c) Steve Scherf et al.
# Submitted via: audiograbber 1.82.02
# Normalized: r1:DSETVAR2
#
DISCID=420e4e16
DTITLE=Various Artist - La route du Blues Volume 1
DYEAR=1996
DGENRE=Blues
TTITLE0=Champion Jack Dupree - Gamblin' Man Blues
TTITLE1=Big Bill Bronzy - Rocking Chair Blues
TTITLE2=Charlie Mac Coy - Baltimore Blues
TTITLE3=Count Basie - Jimmy's Blues
TTITLE4=Dinah Washington - Rich Man's Blues
TTITLE5=Arthur Big Boy Crudup - Mean Old' Frisco Blues
TTITLE6=Frank Stokes - Right Now Blues
TTITLE7=Blind Lemon Jefferson - Lonesome House Blues
TTITLE8=Jazz Gillum - Gillum's Windy Blues
TTITLE9=Rythm Willie - Breath Taking Blues
TTITLE10=Jimmy Yancey - Slow And Easy Blues
TTITLE11=Robert Johnson - Me And The Devil Blues
TTITLE12=Noah Lewis - Ticket Agent Blues
TTITLE13=Big Walter Horton - Lost Baby Blues
TTITLE14=Henry Spaudling - Cairo Blues
TTITLE15=Blind Willie Mc Tell - Three Women Blues
TTITLE16=Blind Boy Fuller - Bus Rider Blues
TTITLE17=Harper and Smith - Insurance Policy Blues
TTITLE18=Hot Lips Page - Sunset Blues
TTITLE19=Big Maceo - Worried Life Blues
TTITLE20=Robert Petway - Catfish Blues
TTITLE21=Memphis Minnie - Bumble Bee Blues
EXTD=
EXTT0=
EXTT1=
EXTT2=
EXTT3=
EXTT4=
EXTT5=
EXTT6=
EXTT7=
EXTT8=
EXTT9=
EXTT10=
EXTT11=
EXTT12=
EXTT13=
EXTT14=
EXTT15=
EXTT16=
EXTT17=
EXTT18=
EXTT19=
EXTT20=
EXTT21=
PLAYORDER=
